<svg width="38" height="38" viewBox="0 0 38 38" fill="none" xmlns="http://www.w3.org/2000/svg">
<path d="M22.1667 3.16667H9.82451C8.88108 3.16667 8.06879 3.83257 7.88378 4.75768L6.61865 11.0833H3.16667V14.25H6.50552L8.67833 33.0811C8.79357 34.0797 9.63916 34.8333 10.6445 34.8333H27.3556C28.3608 34.8333 29.2065 34.0797 29.3216 33.0811L31.4944 14.25H34.8333V11.0833H31.3814L30.1163 4.75768C29.9312 3.83257 29.1189 3.16667 28.1754 3.16667H25.3333V0H22.1667V3.16667ZM28.152 11.0833H9.84802L10.798 6.33333H27.202L28.152 11.0833ZM9.6932 14.25H28.3068L26.2973 31.6667H11.7028L9.6932 14.25Z" fill="#543A20"/>
</svg>
