<svg width="20" height="20" viewBox="0 0 20 20" fill="none" xmlns="http://www.w3.org/2000/svg">
<path d="M8.33416 3.27378C10.2917 1.51667 13.3167 1.575 15.2022 3.46447C17.0877 5.35393 17.1525 8.36417 15.3988 10.3275L8.33325 17.4042L1.26782 10.3275C-0.485793 8.36417 -0.420243 5.34918 1.46447 3.46447C3.35131 1.57763 6.37099 1.51406 8.33416 3.27378ZM14.0225 4.64175C12.7732 3.38995 10.7563 3.33918 9.4475 4.51406L8.33491 5.5127L7.22175 4.51484C5.90915 3.33831 3.89588 3.39007 2.64297 4.64298C1.40152 5.88443 1.3392 7.87275 2.48327 9.186L8.33325 15.0453L14.1834 9.186C15.3279 7.87225 15.2658 5.88771 14.0225 4.64175Z" fill="white"/>
</svg>
