<svg width="37" height="37" viewBox="0 0 37 37" fill="none" xmlns="http://www.w3.org/2000/svg">
<path d="M18.5 33.9168C9.98561 33.9168 3.08334 27.0145 3.08334 18.5002C3.08334 9.98577 9.98561 3.0835 18.5 3.0835C27.0143 3.0835 33.9167 9.98577 33.9167 18.5002C33.9167 27.0145 27.0143 33.9168 18.5 33.9168ZM18.5 30.8335C25.3116 30.8335 30.8333 25.3117 30.8333 18.5002C30.8333 11.6886 25.3116 6.16683 18.5 6.16683C11.6885 6.16683 6.16667 11.6886 6.16667 18.5002C6.16667 25.3117 11.6885 30.8335 18.5 30.8335ZM20.0417 18.5002H26.2083V21.5835H16.9583V10.7918H20.0417V18.5002Z" fill="white"/>
</svg>
