<svg width="39" height="26" viewBox="0 0 39 26" fill="none" xmlns="http://www.w3.org/2000/svg">
<path d="M14.9012 26C25.8158 26 31.7847 17.0474 31.7847 9.28404C31.7847 9.02979 31.7795 8.77671 31.7679 8.52467C32.9293 7.69264 33.9316 6.66245 34.7279 5.4824C33.6646 5.95041 32.5205 6.2654 31.3202 6.40742C32.5453 5.6801 33.4858 4.52946 33.9296 3.15791C32.7648 3.84206 31.4904 4.32434 30.1616 4.58398C29.0787 3.44201 27.5371 2.72778 25.8301 2.72778C22.5532 2.72778 19.8958 5.35883 19.8958 8.60199C19.8958 9.06307 19.948 9.51141 20.0498 9.9416C15.118 9.6959 10.7448 7.35809 7.818 3.80331C7.29086 4.6999 7.0136 5.71888 7.01452 6.75621C7.01452 8.79451 8.06208 10.5939 9.65517 11.6466C8.71284 11.6181 7.79119 11.3661 6.96773 10.9118C6.96684 10.9364 6.96684 10.9605 6.96684 10.9868C6.96684 13.832 9.01223 16.2076 11.7274 16.7459C11.2175 16.8834 10.6913 16.9529 10.1627 16.9526C9.78103 16.9526 9.40904 16.9154 9.04751 16.8467C9.80296 19.181 11.9936 20.8797 14.5908 20.9272C12.5598 22.5033 10.0014 23.442 7.22074 23.442C6.74772 23.4424 6.27509 23.4152 5.8053 23.3606C8.43149 25.0272 11.5498 25.9996 14.9014 25.9996" fill="#F5F5F5"/>
</svg>
