<svg width="24" height="24" viewBox="0 0 24 24" fill="none" xmlns="http://www.w3.org/2000/svg">
<g opacity="0.66">
<path fill-rule="evenodd" clip-rule="evenodd" d="M11.383 3.07916C11.009 2.92516 10.579 3.01016 10.293 3.29616L6 8.00216H3C2.45 8.00216 2 8.45316 2 9.00216V15.0021C2 15.5521 2.45 16.0021 3 16.0021H6L10.293 20.7101C10.579 20.9961 11.009 21.0821 11.383 20.9271C11.757 20.7721 12 20.4071 12 20.0021V4.00216C12 3.59916 11.757 3.23216 11.383 3.07916ZM14 5.00207V7.00207C16.757 7.00207 19 9.24607 19 12.0021C19 14.7591 16.757 17.0021 14 17.0021V19.0021C17.86 19.0021 21 15.8631 21 12.0021C21 8.14307 17.86 5.00207 14 5.00207ZM14 9.00207C15.654 9.00207 17 10.3491 17 12.0021C17 13.6571 15.654 15.0021 14 15.0021V13.0021C14.551 13.0021 15 12.5531 15 12.0021C15 11.4511 14.551 11.0021 14 11.0021V9.00207Z" fill="#FF0000" style="mix-blend-mode:saturation"/>
<path fill-rule="evenodd" clip-rule="evenodd" d="M11.383 3.07916C11.009 2.92516 10.579 3.01016 10.293 3.29616L6 8.00216H3C2.45 8.00216 2 8.45316 2 9.00216V15.0021C2 15.5521 2.45 16.0021 3 16.0021H6L10.293 20.7101C10.579 20.9961 11.009 21.0821 11.383 20.9271C11.757 20.7721 12 20.4071 12 20.0021V4.00216C12 3.59916 11.757 3.23216 11.383 3.07916ZM14 5.00207V7.00207C16.757 7.00207 19 9.24607 19 12.0021C19 14.7591 16.757 17.0021 14 17.0021V19.0021C17.86 19.0021 21 15.8631 21 12.0021C21 8.14307 17.86 5.00207 14 5.00207ZM14 9.00207C15.654 9.00207 17 10.3491 17 12.0021C17 13.6571 15.654 15.0021 14 15.0021V13.0021C14.551 13.0021 15 12.5531 15 12.0021C15 11.4511 14.551 11.0021 14 11.0021V9.00207Z" fill="white" style="mix-blend-mode:difference"/>
<path fill-rule="evenodd" clip-rule="evenodd" d="M11.383 3.07916C11.009 2.92516 10.579 3.01016 10.293 3.29616L6 8.00216H3C2.45 8.00216 2 8.45316 2 9.00216V15.0021C2 15.5521 2.45 16.0021 3 16.0021H6L10.293 20.7101C10.579 20.9961 11.009 21.0821 11.383 20.9271C11.757 20.7721 12 20.4071 12 20.0021V4.00216C12 3.59916 11.757 3.23216 11.383 3.07916ZM14 5.00207V7.00207C16.757 7.00207 19 9.24607 19 12.0021C19 14.7591 16.757 17.0021 14 17.0021V19.0021C17.86 19.0021 21 15.8631 21 12.0021C21 8.14307 17.86 5.00207 14 5.00207ZM14 9.00207C15.654 9.00207 17 10.3491 17 12.0021C17 13.6571 15.654 15.0021 14 15.0021V13.0021C14.551 13.0021 15 12.5531 15 12.0021C15 11.4511 14.551 11.0021 14 11.0021V9.00207Z" fill="white" style="mix-blend-mode:saturation"/>
<path fill-rule="evenodd" clip-rule="evenodd" d="M11.383 3.07916C11.009 2.92516 10.579 3.01016 10.293 3.29616L6 8.00216H3C2.45 8.00216 2 8.45316 2 9.00216V15.0021C2 15.5521 2.45 16.0021 3 16.0021H6L10.293 20.7101C10.579 20.9961 11.009 21.0821 11.383 20.9271C11.757 20.7721 12 20.4071 12 20.0021V4.00216C12 3.59916 11.757 3.23216 11.383 3.07916ZM14 5.00207V7.00207C16.757 7.00207 19 9.24607 19 12.0021C19 14.7591 16.757 17.0021 14 17.0021V19.0021C17.86 19.0021 21 15.8631 21 12.0021C21 8.14307 17.86 5.00207 14 5.00207ZM14 9.00207C15.654 9.00207 17 10.3491 17 12.0021C17 13.6571 15.654 15.0021 14 15.0021V13.0021C14.551 13.0021 15 12.5531 15 12.0021C15 11.4511 14.551 11.0021 14 11.0021V9.00207Z" fill="white" style="mix-blend-mode:overlay"/>
<path fill-rule="evenodd" clip-rule="evenodd" d="M11.383 3.07916C11.009 2.92516 10.579 3.01016 10.293 3.29616L6 8.00216H3C2.45 8.00216 2 8.45316 2 9.00216V15.0021C2 15.5521 2.45 16.0021 3 16.0021H6L10.293 20.7101C10.579 20.9961 11.009 21.0821 11.383 20.9271C11.757 20.7721 12 20.4071 12 20.0021V4.00216C12 3.59916 11.757 3.23216 11.383 3.07916ZM14 5.00207V7.00207C16.757 7.00207 19 9.24607 19 12.0021C19 14.7591 16.757 17.0021 14 17.0021V19.0021C17.86 19.0021 21 15.8631 21 12.0021C21 8.14307 17.86 5.00207 14 5.00207ZM14 9.00207C15.654 9.00207 17 10.3491 17 12.0021C17 13.6571 15.654 15.0021 14 15.0021V13.0021C14.551 13.0021 15 12.5531 15 12.0021C15 11.4511 14.551 11.0021 14 11.0021V9.00207Z" fill="black" style="mix-blend-mode:overlay"/>
<path fill-rule="evenodd" clip-rule="evenodd" d="M11.383 3.07916C11.009 2.92516 10.579 3.01016 10.293 3.29616L6 8.00216H3C2.45 8.00216 2 8.45316 2 9.00216V15.0021C2 15.5521 2.45 16.0021 3 16.0021H6L10.293 20.7101C10.579 20.9961 11.009 21.0821 11.383 20.9271C11.757 20.7721 12 20.4071 12 20.0021V4.00216C12 3.59916 11.757 3.23216 11.383 3.07916ZM14 5.00207V7.00207C16.757 7.00207 19 9.24607 19 12.0021C19 14.7591 16.757 17.0021 14 17.0021V19.0021C17.86 19.0021 21 15.8631 21 12.0021C21 8.14307 17.86 5.00207 14 5.00207ZM14 9.00207C15.654 9.00207 17 10.3491 17 12.0021C17 13.6571 15.654 15.0021 14 15.0021V13.0021C14.551 13.0021 15 12.5531 15 12.0021C15 11.4511 14.551 11.0021 14 11.0021V9.00207Z" fill="white" style="mix-blend-mode:overlay"/>
<path fill-rule="evenodd" clip-rule="evenodd" d="M11.383 3.07916C11.009 2.92516 10.579 3.01016 10.293 3.29616L6 8.00216H3C2.45 8.00216 2 8.45316 2 9.00216V15.0021C2 15.5521 2.45 16.0021 3 16.0021H6L10.293 20.7101C10.579 20.9961 11.009 21.0821 11.383 20.9271C11.757 20.7721 12 20.4071 12 20.0021V4.00216C12 3.59916 11.757 3.23216 11.383 3.07916ZM14 5.00207V7.00207C16.757 7.00207 19 9.24607 19 12.0021C19 14.7591 16.757 17.0021 14 17.0021V19.0021C17.86 19.0021 21 15.8631 21 12.0021C21 8.14307 17.86 5.00207 14 5.00207ZM14 9.00207C15.654 9.00207 17 10.3491 17 12.0021C17 13.6571 15.654 15.0021 14 15.0021V13.0021C14.551 13.0021 15 12.5531 15 12.0021C15 11.4511 14.551 11.0021 14 11.0021V9.00207Z" fill="black" style="mix-blend-mode:overlay"/>
</g>
</svg>
